# xmcd
#
# Track frame offsets:
#	150
#	14535
#	28835
#	46126
#	64613
#	84404
#	98292
#	115195
#	129269
#	143611
#	156116
#	170355
#	186507
#	201419
#
# Disc length: 2876 seconds
#
# Revision: 1
# Processed by: cddbd v1.4PL0 Copyright (c) Steve Scherf et al.
# Submitted via: audiograbber 1.81.02
#
DISCID=b10b3a0e
DTITLE=Varios - Narcorridos
DYEAR=2001
DGENRE=Folk
TTITLE0=A. González - Contrabando y traición
TTITLE1=Paulino Vargas - La banda del carro rojo
TTITLE2=F. Quintero - Los dos plebes
TTITLE3=René Matamoros - Las parcelas de Mendoza
TTITLE4=Gilberto Díaz G. - El sub-teniente de Linares
TTITLE5=I. Martinez Ledesma - Ya encontraron al Camelia
TTITLE6=E. Galicia - El gallo de San Juan
TTITLE7=M. Quintero Lara - Rigo Campos
TTITLE8=R. Martinez - Contrabando y robo
TTITLE9=Gilberto Díaz G. - Ramona Pineda
TTITLE10=David Leal - Amancio Garza
TTITLE11=P. Vargas - Los tres gallos
TTITLE12=L. Cavarrubias  - El retorno de Chito Callo
TTITLE13=P. Vargas - Contrabando en la frontera
EXTD=
EXTT0=
EXTT1=
EXTT2=
EXTT3=
EXTT4=
EXTT5=
EXTT6=
EXTT7=
EXTT8=
EXTT9=
EXTT10=
EXTT11=
EXTT12=
EXTT13=
PLAYORDER=
